<?xml version="1.0" encoding="UTF-8"?>
<svg version="1.1" xmlns="http://www.w3.org/2000/svg" viewBox="0 0 1254 1254">
<path d="M0 0 C0.99580078 0.55880859 0.99580078 0.55880859 2.01171875 1.12890625 C33.23839243 18.94683417 56.08740422 48.55703815 65.62548828 83.27685547 C67.86544251 92.07000368 69.72763338 100.90976414 70 110 C70.03867188 111.07145264 70.03867188 111.07145264 70.078125 112.16455078 C70.8744061 136.96373035 66.76119992 160.62885844 56.6875 183.375 C56.35733887 184.12209229 56.02717773 184.86918457 55.68701172 185.63891602 C48.57423608 200.94080781 38.5617387 214.85057517 29.1875 228.8125 C27.9807892 230.6150131 26.77440761 232.41774664 25.56835938 234.22070312 C23.18702649 237.7797757 20.80402962 241.33772471 18.41967773 244.89477539 C11.66522966 254.97421291 4.94482416 265.07638353 -1.77653503 275.17790222 C-3.9503232 278.44457239 -6.12487893 281.71073121 -8.29956055 284.97680664 C-9.39014468 286.61520244 -10.48031507 288.25387373 -11.57006836 289.89282227 C-18.15538548 299.79593274 -24.79495354 309.65792501 -31.52325439 319.46452332 C-35.4558082 325.1971903 -39.34572985 330.9560129 -43.1875 336.75 C-44.26429198 338.36981223 -45.34111578 339.98960331 -46.41796875 341.609375 C-47.26391602 342.88349243 -47.26391602 342.88349243 -48.12695312 344.18334961 C-49.85490273 346.78180563 -51.58775946 349.37693987 -53.32139587 351.97160339 C-59.66808615 361.47510952 -65.95175469 371.01984749 -72.23458862 380.56564331 C-82.40043423 396.00929334 -92.58337334 411.44025709 -102.86572266 426.80664062 C-107.63452101 433.94183651 -112.39135745 441.08502395 -117.15115356 448.22622681 C-120.05360667 452.58069696 -122.95650278 456.93487174 -125.859375 461.2890625 C-126.99739819 462.99609218 -128.13541901 464.70312344 -129.2734375 466.41015625 C-131.04134115 469.06201172 -132.80924479 471.71386719 -134.57714844 474.36572266 C-135.49415527 475.74123291 -135.49415527 475.74123291 -136.4296875 477.14453125 C-140.44213867 483.16320801 -144.45458984 489.18188477 -148.46704102 495.20056152 C-148.91942139 495.87913208 -149.37180176 496.55770264 -149.83789062 497.25683594 C-150.68880208 498.53320312 -151.53971354 499.80957031 -152.390625 501.0859375 C-152.79359802 501.69039703 -153.19657104 502.29485657 -153.61175537 502.91763306 C-160.875 513.8125 -160.875 513.8125 -162.82958984 516.7434082 C-164.44046239 519.16044182 -166.05005168 521.57830751 -167.65869141 523.99682617 C-176.12087977 536.71337075 -184.66203792 549.37592502 -193.21289062 562.03295898 C-195.04608984 564.7468845 -196.87869341 567.46121082 -198.7109375 570.17578125 C-199.30897186 571.06157867 -199.90700623 571.9473761 -200.52316284 572.86001587 C-203.65912433 577.51017386 -206.78205668 582.1685586 -209.88720703 586.83935547 C-210.51930084 587.79013474 -211.15139465 588.740914 -211.80264282 589.72050476 C-213.00453873 591.53035353 -214.20496771 593.34117765 -215.40365601 595.15315247 C-219.3091838 601.03680049 -223.3242339 606.69601197 -228 612 C-228.63639404 612.73259033 -228.63639404 612.73259033 -229.28564453 613.47998047 C-239.52431142 625.20519225 -250.56768268 635.01702099 -264 643 C-265.22976563 643.78310547 -265.22976563 643.78310547 -266.484375 644.58203125 C-278.67980333 652.25272264 -292.19683182 656.25924313 -306 660 C-307.26199219 660.34546875 -308.52398437 660.6909375 -309.82421875 661.046875 C-344.27806798 668.94332477 -381.27060798 660.26132692 -410.84960938 641.84863281 C-425.93049647 632.13733092 -438.62096588 619.57120381 -449 605 C-449.59071289 604.18958252 -449.59071289 604.18958252 -450.19335938 603.36279297 C-461.15079015 588.17014083 -467.94752928 570.20060583 -472 552 C-472.18473877 551.22003662 -472.36947754 550.44007324 -472.55981445 549.63647461 C-474.22170623 541.81724057 -474.33869939 534.05121575 -474.31567383 526.09545898 C-474.31252895 523.83332355 -474.3360011 521.57252034 -474.36132812 519.31054688 C-474.4818447 491.44961695 -464.29766959 465.08837758 -449.5625 441.71875 C-448.92155144 440.69838654 -448.92155144 440.69838654 -448.26765442 439.65740967 C-443.18723924 431.63137111 -437.84630216 423.78119712 -432.50643921 415.92654419 C-418.28968773 395.00678866 -404.34133415 373.91545701 -390.45654297 352.77450562 C-386.33219684 346.49750527 -382.17880416 340.24091362 -378 334 C-365.75824213 315.69294692 -353.59261585 297.33759963 -341.48535156 278.94128418 C-333.9668887 267.51761453 -326.4226012 256.11281402 -318.8125 244.75 C-314.02680036 237.59902842 -309.316656 230.42135837 -304.80273438 223.09594727 C-298.90571724 213.5551347 -292.68464016 204.21944282 -286.52636719 194.84619141 C-284.28451334 191.43393036 -282.0453581 188.0199054 -279.80661011 184.60560608 C-268.27607444 167.02201681 -256.69146854 149.4771145 -245 132 C-241.93575748 127.41782878 -238.87284148 122.83477764 -235.8125 118.25 C-235.43185394 117.67979126 -235.05120789 117.10958252 -234.6590271 116.52209473 C-229.18326052 108.31553764 -223.76883982 100.07136708 -218.40722656 91.78979492 C-214.54068388 85.81975962 -210.62243589 79.88731821 -206.66015625 73.98046875 C-204.63023013 70.95237195 -202.62298653 67.90997992 -200.62109375 64.86328125 C-189.23241882 47.56971152 -177.42071426 29.97542058 -161 17 C-159.47052734 15.77216797 -159.47052734 15.77216797 -157.91015625 14.51953125 C-150.74621361 8.93445754 -143.29010019 4.29073702 -135.25 0.0625 C-134.39962158 -0.38577148 -133.54924316 -0.83404297 -132.6730957 -1.29589844 C-126.61104031 -4.39325634 -120.42722132 -6.77568871 -114 -9 C-112.48212891 -9.57427734 -112.48212891 -9.57427734 -110.93359375 -10.16015625 C-75.95612273 -22.80459413 -32.19965668 -18.15579856 0 0 Z " fill="#FDFDFD" transform="translate(749,315)"/>
<path d="M0 0 C13.67847313 12.32127054 22.81552134 26.80604518 32.19482422 42.49853516 C34.28810734 45.99928571 36.40352372 49.48624453 38.52539062 52.96972656 C41.35572642 57.61708876 44.1799368 62.26806559 46.99804688 66.92285156 C49.94755085 71.79349374 52.91330136 76.65391023 55.88867188 81.50878906 C78.71200677 118.77271976 95.57977226 158.92984893 85.69335938 203.73144531 C85.00560649 206.54104204 84.20651743 209.29160164 83.31835938 212.04394531 C82.99689941 213.06294922 82.99689941 213.06294922 82.66894531 214.10253906 C75.98919152 234.67656967 65.30031077 252.4999005 50.31835938 268.04394531 C49.24134766 269.23310547 49.24134766 269.23310547 48.14257812 270.44628906 C35.07435853 284.44971082 16.39139249 293.54345697 -1.68164062 299.04394531 C-3.24591797 299.52541016 -3.24591797 299.52541016 -4.84179688 300.01660156 C-13.79167374 302.26715539 -22.68302247 302.33110565 -31.86914062 302.35644531 C-33.14015625 302.36200439 -34.41117188 302.36756348 -35.72070312 302.37329102 C-68.63018014 302.12287421 -96.70356961 288.33735727 -120.18164062 265.91894531 C-130.55716831 255.27851053 -138.15046979 242.89195792 -145.65429688 230.14160156 C-148.52451187 225.27431439 -151.51825074 220.49506104 -154.55664062 215.73144531 C-159.63567777 207.75404004 -164.57059464 199.6956939 -169.45922852 191.6003418 C-172.22216037 187.0369764 -175.00998165 182.49967015 -177.91992188 178.02832031 C-198.91240304 145.76740455 -211.19489762 107.62773327 -203.36914062 68.85644531 C-202.84057661 66.57747397 -202.28219346 64.30501289 -201.68164062 62.04394531 C-201.45347656 61.06296875 -201.2253125 60.08199219 -200.99023438 59.07128906 C-193.84498289 30.04115305 -174.56233052 3.70557136 -149.30664062 -12.10839844 C-101.28144413 -40.54149772 -42.39291218 -36.89753467 0 0 Z " fill="#FDFDFD" transform="translate(909.681640625,671.9560546875)"/>
</svg>
