<svg xmlns="http://www.w3.org/2000/svg" viewBox="300 530 1470 470">
<defs>
	<linearGradient id="Gradient1" gradientUnits="userSpaceOnUse" x1="646.914" y1="769.055" x2="670.061" y2="880.236">
		<stop class="stop0" offset="0" stop-opacity="1" stop-color="rgb(2,222,253)"/>
		<stop class="stop1" offset="1" stop-opacity="1" stop-color="rgb(2,89,255)"/>
	</linearGradient>
	<linearGradient id="Gradient2" gradientUnits="userSpaceOnUse" x1="908.128" y1="641.282" x2="895.471" y2="593.201">
		<stop class="stop0" offset="0" stop-opacity="1" stop-color="rgb(0,26,66)"/>
		<stop class="stop1" offset="1" stop-opacity="1" stop-color="rgb(0,45,111)"/>
	</linearGradient>
	<linearGradient id="Gradient3" gradientUnits="userSpaceOnUse" x1="446.499" y1="775.998" x2="403.115" y2="710.924">
		<stop class="stop0" offset="0" stop-opacity="1" stop-color="rgb(0,25,60)"/>
		<stop class="stop1" offset="1" stop-opacity="1" stop-color="rgb(0,59,168)"/>
	</linearGradient>
	<linearGradient id="Gradient4" gradientUnits="userSpaceOnUse" x1="493.867" y1="640.055" x2="457.673" y2="571.142">
		<stop class="stop0" offset="0" stop-opacity="1" stop-color="rgb(0,95,240)"/>
		<stop class="stop1" offset="1" stop-opacity="1" stop-color="rgb(0,171,254)"/>
	</linearGradient>
	<linearGradient id="Gradient5" gradientUnits="userSpaceOnUse" x1="684.818" y1="690.365" x2="632.411" y2="553.854">
		<stop class="stop0" offset="0" stop-opacity="1" stop-color="rgb(0,25,102)"/>
		<stop class="stop1" offset="1" stop-opacity="1" stop-color="rgb(0,115,229)"/>
	</linearGradient>
	<linearGradient id="Gradient6" gradientUnits="userSpaceOnUse" x1="1123.28" y1="1094.37" x2="992.499" y2="600.085">
		<stop class="stop0" offset="0" stop-opacity="1" stop-color="rgb(0,0,0)"/>
		<stop class="stop1" offset="1" stop-opacity="1" stop-color="rgb(0,11,27)"/>
	</linearGradient>
</defs>
<path transform="translate(0,0)" fill="url(#Gradient6)" d="M 1242.81 549.094 C 1304.57 547.72 1370.31 548.96 1432.39 548.943 L 1505.44 548.88 C 1532.17 548.855 1558.54 547.556 1584.58 553.894 C 1681.68 577.523 1748.35 664.265 1752.87 762.979 C 1753.44 775.484 1751.64 787.955 1748.41 800.148 C 1746.77 813.279 1743.32 829.113 1737.44 840.948 C 1728.37 872.456 1692.24 922.847 1663.02 939.574 C 1660.53 941.001 1659.62 941.444 1656.81 941.815 C 1651.78 944.089 1648.06 948.551 1643.5 951.937 C 1634.74 958.441 1624.97 963.726 1615.12 968.405 C 1603 972.833 1590.25 975.017 1577.7 977.837 C 1571.59 979.209 1565.45 981.862 1559.14 982.317 C 1539.89 983.702 1520.42 983.984 1501.13 984.656 C 1446.46 986.39 1391.76 986.737 1337.07 985.698 C 1325.6 985.048 1312.51 985.105 1300.91 984.902 C 1140.21 981.786 979.485 980.819 818.766 982 C 765.773 981.991 712.78 982.254 659.789 982.789 C 635.418 982.998 596.703 984.471 573.038 983.044 C 516.025 987.456 460.349 981.172 412.934 946.683 C 388.608 932.46 362.224 905.816 348.337 881.37 C 344.786 873.775 338.807 864.258 334.585 855.333 C 321.545 827.687 314.884 797.464 315.097 766.897 C 316.352 667.101 383.779 579.219 481.134 554.673 C 511.039 547.133 545.615 549.009 576.434 549.011 L 668.622 549.026 C 756.325 548.986 847.108 547.665 934.479 549.149 C 1026.12 547.782 1118.15 549.867 1209.82 548.959 C 1220.53 548.853 1232.14 548.622 1242.81 549.094 z"/>
<path transform="translate(0,0)" fill="url(#Gradient5)" d="M 348.337 881.37 C 344.786 873.775 338.807 864.258 334.585 855.333 C 321.545 827.687 314.884 797.464 315.097 766.897 C 316.352 667.101 383.779 579.219 481.134 554.673 C 511.039 547.133 545.615 549.009 576.434 549.011 L 668.622 549.026 C 756.325 548.986 847.108 547.665 934.479 549.149 C 943.394 550.095 954.384 550.465 963.458 550.608 L 964.007 551.538 L 966.595 551.165 C 963.937 551.625 956.481 552.085 955.429 552.97 C 934.464 554.014 907.619 553.355 886.329 553.353 C 880.477 554.351 877.051 553.898 871.648 556.817 L 871.177 557.584 C 877.805 561.4 1014.14 559.524 1032.08 559.534 C 1004.13 563.058 982.641 571.502 958.2 584.485 C 950.897 587.453 939.784 588.575 932.87 591.44 C 909.646 601.06 891.315 604.976 866.522 607.669 C 839.605 610.592 812.243 621.39 786.246 627.866 C 760.681 634.234 736.22 642.917 710.605 648.151 C 687.574 651.872 667.275 660.151 643.999 662.361 C 638.543 662.879 630.741 667.757 626.266 667.178 C 624.747 665.233 623.909 664.075 622.573 662.007 L 621.967 662.593 C 607.7 646.154 602.847 636.062 577.871 634 C 558.052 632.364 539.054 641.387 528.026 657.978 C 525.314 662.144 521.735 668.272 518.575 672.132 C 507.382 691.328 492.134 711.356 480.102 730.244 C 476.226 736.328 467.377 748.512 464.426 754.653 C 456.027 762.777 429.76 806.133 426.948 816.377 C 422.499 802.853 454.013 773.882 451.661 766.299 C 438.549 761.171 368.292 825.061 356.849 835.807 C 354.061 838.424 345.164 844.893 343.799 847.898 C 344.339 857.472 360.522 868.558 355.241 879.46 L 353.737 878.67 C 349.826 879.485 351.167 878.693 348.337 881.37 z"/>
<path transform="translate(0,0)" fill="url(#Gradient4)" d="M 348.337 881.37 C 344.786 873.775 338.807 864.258 334.585 855.333 C 321.545 827.687 314.884 797.464 315.097 766.897 C 316.352 667.101 383.779 579.219 481.134 554.673 C 511.039 547.133 545.615 549.009 576.434 549.011 L 668.622 549.026 C 756.325 548.986 847.108 547.665 934.479 549.149 C 943.394 550.095 954.384 550.465 963.458 550.608 L 964.007 551.538 L 966.595 551.165 C 963.937 551.625 956.481 552.085 955.429 552.97 C 934.464 554.014 907.619 553.355 886.329 553.353 C 842.729 553.07 798.981 553.808 755.335 553.817 C 738.107 553.833 720.88 553.966 703.654 554.216 C 692.641 554.323 675.246 554.213 664.517 555.711 C 658.11 560.954 627.621 563.008 617.896 565.559 C 599.177 570.467 580.351 578.494 561.932 584.682 C 541.174 591.655 519.301 596.827 499.409 606.056 C 476.532 616.67 455.607 630.573 434.347 644.003 C 417.041 654.935 399.057 665.608 382.757 678.01 C 373.733 684.875 366.53 694.071 357.855 701.376 C 349.792 708.165 340.425 712.156 331.648 717.712 C 330.117 724.5 325.76 743.502 326.707 749.787 C 325.565 754.056 325.203 756.634 322.672 760.28 C 315.463 790.45 336.847 852.937 353.737 878.67 C 349.826 879.485 351.167 878.693 348.337 881.37 z"/>
<path transform="translate(0,0)" fill="rgb(58,246,252)" d="M 348.337 881.37 C 344.786 873.775 338.807 864.258 334.585 855.333 C 321.545 827.687 314.884 797.464 315.097 766.897 C 316.352 667.101 383.779 579.219 481.134 554.673 C 511.039 547.133 545.615 549.009 576.434 549.011 L 668.622 549.026 C 756.325 548.986 847.108 547.665 934.479 549.149 C 943.394 550.095 954.384 550.465 963.458 550.608 L 964.007 551.538 L 966.595 551.165 C 963.937 551.625 956.481 552.085 955.429 552.97 C 934.464 554.014 907.619 553.355 886.329 553.353 C 842.729 553.07 798.981 553.808 755.335 553.817 C 738.107 553.833 720.88 553.966 703.654 554.216 C 692.641 554.323 675.246 554.213 664.517 555.711 C 639.643 554.429 614.167 556.589 589.919 555.588 C 518.132 552.625 450.127 558.919 394.371 609.847 C 354.632 646.145 326.248 701.18 322.589 755.545 C 322.496 757.028 322.573 758.802 322.672 760.28 C 315.463 790.45 336.847 852.937 353.737 878.67 C 349.826 879.485 351.167 878.693 348.337 881.37 z"/>
<path transform="translate(0,0)" fill="url(#Gradient3)" d="M 326.707 749.787 C 332.679 758.437 322.713 771.606 328.554 783.161 C 332.866 773.093 359.477 754.375 368.099 746.694 C 371.666 743.771 379.375 729.977 382.377 728.507 C 392.756 723.426 397.342 716.955 405.737 710.237 C 422.74 696.634 444.161 686.3 463.843 677.065 C 471.07 673.674 480.484 671.806 487.931 668.625 C 501.11 663.214 505.082 658.362 519.831 662.598 C 521.344 665.144 519.584 668.11 518.575 672.132 C 507.382 691.328 492.134 711.356 480.102 730.244 C 476.226 736.328 467.377 748.512 464.426 754.653 C 456.027 762.777 429.76 806.133 426.948 816.377 C 422.499 802.853 454.013 773.882 451.661 766.299 C 438.549 761.171 368.292 825.061 356.849 835.807 C 354.061 838.424 345.164 844.893 343.799 847.898 C 344.339 857.472 360.522 868.558 355.241 879.46 L 353.737 878.67 C 336.847 852.937 315.463 790.45 322.672 760.28 C 325.203 756.634 325.565 754.056 326.707 749.787 z"/>
<path transform="translate(0,0)" fill="rgb(0,70,203)" d="M 369.241 709.348 L 372.177 709.95 L 372.924 711.48 C 371.462 713.459 370.098 714.967 368.478 716.793 C 372.641 714.704 377.771 711.244 382.05 710.971 L 382.572 711.954 C 375.585 714.959 371.614 726.543 363.939 731.662 C 360.871 733.709 342.022 748.909 341.384 750.853 C 340.32 753.768 336.464 758.214 333.365 758.234 L 333.11 753.612 L 331.161 753.074 L 330.791 751.967 C 337.567 741.224 352.996 733.708 363.706 719.71 C 361.297 719.13 360.125 719.385 359.194 717.864 C 361.836 716.753 362.537 716.389 364.994 714.907 C 363.854 713.279 364.333 714.115 363.534 712.412 L 369.241 709.348 z"/>
<path transform="translate(0,0)" fill="rgb(35,170,252)" d="M 518.575 672.132 C 521.735 668.272 525.314 662.144 528.026 657.978 C 539.054 641.387 558.052 632.364 577.871 634 C 602.847 636.062 607.7 646.154 621.967 662.593 C 637.805 713.07 609.103 724.826 588.369 764.172 C 586.432 766.874 584.437 769.535 582.386 772.151 C 572.487 789.181 557.852 808.796 546.827 825.605 C 539.677 836.506 525.937 858.411 517.578 866.61 C 510.73 873.434 502.199 878.327 492.851 880.79 C 465.385 887.812 433.99 871.028 427.649 842.973 C 425.597 833.895 425.634 825.503 426.948 816.377 C 429.76 806.133 456.027 762.777 464.426 754.653 C 467.377 748.512 476.226 736.328 480.102 730.244 C 492.134 711.356 507.382 691.328 518.575 672.132 z"/>
<path transform="translate(0,0)" fill="rgb(58,246,252)" d="M 518.575 672.132 C 521.735 668.272 525.314 662.144 528.026 657.978 C 539.054 641.387 558.052 632.364 577.871 634 C 602.847 636.062 607.7 646.154 621.967 662.593 C 637.805 713.07 609.103 724.826 588.369 764.172 C 586.432 766.874 584.437 769.535 582.386 772.151 C 581.838 772.107 582.258 772.198 580.8 771.492 C 581.934 769.894 582.88 768.479 583.937 766.844 L 583.264 765.419 C 576.958 762.285 570.146 760.817 564 758.054 C 536.066 745.495 504.418 747.927 475.781 740.488 C 472.695 745.412 469.436 750.224 466.01 754.917 L 464.426 754.653 C 467.377 748.512 476.226 736.328 480.102 730.244 C 492.134 711.356 507.382 691.328 518.575 672.132 z"/>
<path transform="translate(0,0)" fill="url(#Gradient2)" d="M 934.479 549.149 C 1026.12 547.782 1118.15 549.867 1209.82 548.959 C 1220.53 548.853 1232.14 548.622 1242.81 549.094 C 1261.47 550.931 1348.75 548.369 1358.21 552.901 C 1368.27 553.45 1378.61 553.298 1388.7 553.302 C 1380.07 558.823 1240.71 553.309 1219.92 555.366 C 1205.66 559.589 1191.52 560.124 1176.73 560.519 C 1168.2 560.747 1148.65 559.964 1140.81 563.661 C 1130.34 568.599 1124.67 574.326 1111.94 578.309 L 1069.73 591.217 C 1052.7 596.314 1040.59 601.488 1023 605.343 C 993.986 611.7 967.831 626.604 938.097 633.368 C 917.833 637.977 897.488 647.849 875.516 648.278 C 861.431 649.019 850.474 651.054 837.431 656.181 C 813.298 662.342 792.256 669.223 767.135 669.36 C 762.547 669.385 744.166 676.183 737.898 677.359 C 716.199 681.593 693.084 687.08 671.733 692.184 C 664.476 693.919 630.79 695.543 630.477 696.629 C 628.007 705.205 597.894 760.115 588.369 764.172 C 609.103 724.826 637.805 713.07 621.967 662.593 L 622.573 662.007 C 623.909 664.075 624.747 665.233 626.266 667.178 C 630.741 667.757 638.543 662.879 643.999 662.361 C 667.275 660.151 687.574 651.872 710.605 648.151 C 736.22 642.917 760.681 634.234 786.246 627.866 C 812.243 621.39 839.605 610.592 866.522 607.669 C 891.315 604.976 909.646 601.06 932.87 591.44 C 939.784 588.575 950.897 587.453 958.2 584.485 C 982.641 571.502 1004.13 563.058 1032.08 559.534 C 1014.14 559.524 877.805 561.4 871.177 557.584 L 871.648 556.817 C 877.051 553.898 880.477 554.351 886.329 553.353 C 907.619 553.355 934.464 554.014 955.429 552.97 C 956.481 552.085 963.937 551.625 966.595 551.165 L 964.007 551.538 L 963.458 550.608 C 954.384 550.465 943.394 550.095 934.479 549.149 z"/>
<path transform="translate(0,0)" fill="rgb(35,170,252)" d="M 934.479 549.149 C 1026.12 547.782 1118.15 549.867 1209.82 548.959 C 1220.53 548.853 1232.14 548.622 1242.81 549.094 C 1261.47 550.931 1348.75 548.369 1358.21 552.901 C 1276.4 554.391 1190.66 553.209 1108.51 553.242 L 1010.06 553.284 C 993.331 553.289 971.722 553.942 955.429 552.97 C 956.481 552.085 963.937 551.625 966.595 551.165 L 964.007 551.538 L 963.458 550.608 C 954.384 550.465 943.394 550.095 934.479 549.149 z"/>
<path transform="translate(0,0)" fill="rgb(117,130,157)" d="M 1242.81 549.094 C 1304.57 547.72 1370.31 548.96 1432.39 548.943 L 1505.44 548.88 C 1532.17 548.855 1558.54 547.556 1584.58 553.894 C 1681.68 577.523 1748.35 664.265 1752.87 762.979 C 1753.44 775.484 1751.64 787.955 1748.41 800.148 L 1746.8 800.761 C 1746.06 803.909 1745.29 807.012 1744.76 810.2 L 1744.02 801.719 C 1744.09 798.293 1744.84 793.095 1745.26 789.493 C 1752.73 725.57 1729.41 660.767 1682.89 614.933 C 1647.43 579.394 1600.41 557.731 1550.35 553.87 C 1533.5 552.47 1508.98 553.095 1491.6 553.084 L 1388.7 553.302 C 1378.61 553.298 1368.27 553.45 1358.21 552.901 C 1348.75 548.369 1261.47 550.931 1242.81 549.094 z"/>
<path transform="translate(0,0)" fill="rgb(117,130,157)" d="M 415.047 943.909 C 421.34 947.7 428.57 952.91 434.821 956.189 C 463.351 971.152 494.425 978.889 526.445 981.162 C 541.046 982.198 558.768 980.793 573.038 983.044 C 516.025 987.456 460.349 981.172 412.934 946.683 L 415.047 943.909 z"/>
<path transform="translate(0,0)" fill="rgb(117,130,157)" d="M 1734.26 838.249 L 1737.44 840.948 C 1728.37 872.456 1692.24 922.847 1663.02 939.574 C 1660.53 941.001 1659.62 941.444 1656.81 941.815 C 1659.89 938.39 1675.88 925.434 1680.78 920.69 C 1708.25 894.067 1720.35 873.064 1734.26 838.249 z"/>
<path transform="translate(0,0)" fill="rgb(115,154,235)" d="M 353.737 878.67 L 355.241 879.46 C 365.425 903.562 393.556 929.184 415.047 943.909 L 412.934 946.683 C 388.608 932.46 362.224 905.816 348.337 881.37 C 351.167 878.693 349.826 879.485 353.737 878.67 z"/>
<path transform="translate(0,0)" fill="rgb(113,131,153)" d="M 1744.02 801.719 L 1744.76 810.2 C 1745.29 807.012 1746.06 803.909 1746.8 800.761 L 1748.41 800.148 C 1746.77 813.279 1743.32 829.113 1737.44 840.948 L 1734.26 838.249 C 1738.7 826.668 1741.35 813.82 1744.02 801.719 z"/>
<path transform="translate(0,0)" fill="rgb(0,0,0)" d="M 1300.91 984.902 C 1308.41 981.78 1331.1 979.507 1337.72 982.944 C 1337.57 984.641 1337.85 984.413 1337.07 985.698 C 1325.6 985.048 1312.51 985.105 1300.91 984.902 z"/>
<path transform="translate(0,0)" fill="rgb(254,254,254)" d="M 1071.24 690.805 C 1095.5 690.669 1149.14 687.036 1169.75 695.764 C 1180.93 700.5 1190.28 708.623 1194.7 720.118 C 1199.44 732.417 1198.9 748.91 1193.3 760.838 C 1186.76 774.753 1174.43 780.598 1160.69 785.423 C 1175.17 806.825 1191.01 828.419 1204.87 849.992 L 1177.24 850.12 L 1135.81 787.888 L 1095.87 787.924 L 1095.67 849.994 L 1071.7 849.982 C 1070.01 799.408 1071.51 742.044 1071.24 690.805 z"/>
<path transform="translate(0,0)" fill="rgb(0,0,0)" d="M 1095.9 712.046 C 1114.14 711.888 1136.66 710.347 1154.25 713.764 C 1175.34 717.861 1178.82 744.661 1165.67 759.266 C 1150.26 770.967 1116.87 766.725 1095.87 766.925 C 1095.78 748.632 1095.79 730.339 1095.9 712.046 z"/>
<path transform="translate(0,0)" fill="rgb(254,254,254)" d="M 1423.78 687.737 L 1445.92 687.623 L 1445.89 849.983 L 1423.98 850.072 L 1423.93 829.979 C 1408.87 855.289 1383.39 858.631 1357.98 846.133 C 1330.13 827.568 1322.85 786.379 1340.11 758.027 C 1359.34 726.442 1403.3 721.556 1423.69 756.672 L 1423.78 687.737 z"/>
<path transform="translate(0,0)" fill="rgb(0,0,0)" d="M 1388.76 752.361 C 1435.94 755.17 1437.66 827.322 1390.98 834.129 C 1353.98 831.433 1344.31 793.059 1362.98 764.319 C 1368.35 756.047 1379.32 753.364 1388.76 752.361 z"/>
<path transform="translate(0,0)" fill="url(#Gradient1)" d="M 606.617 772.144 C 622.461 749.611 654.322 746.414 676.972 760.499 C 694.597 772.242 695.863 783.118 707.314 798.535 C 729.638 828.587 715.247 874.481 676.192 881.571 C 662.16 884.169 647.674 880.989 636.02 872.753 C 620.511 861.811 600.692 829.407 597.088 810.42 C 594.656 797.611 598.313 782.381 606.617 772.144 z"/>
<path transform="translate(0,0)" fill="rgb(58,246,252)" d="M 606.617 772.144 C 622.461 749.611 654.322 746.414 676.972 760.499 C 672.274 774.491 641.388 772.058 629.558 773.833 C 621.625 775.024 614.224 776.695 606.185 777.825 C 605.586 775.468 606.097 774.713 606.617 772.144 z"/>
<path transform="translate(0,0)" fill="rgb(254,254,254)" d="M 863.744 690.944 L 892.73 690.854 C 912.989 743.798 936.554 797.303 956.054 850.062 L 930.734 850.129 C 925.359 837.468 920.835 824.889 916.12 811.988 L 895.25 812.012 L 840.268 811.995 C 835.648 824.662 830.574 837.421 825.867 850.141 L 800.681 849.987 C 821.347 796.833 842.369 743.817 863.744 690.944 z"/>
<path transform="translate(0,0)" fill="rgb(0,0,0)" d="M 877.653 714.8 C 880.074 717.297 904.577 782.775 907.667 790.738 L 881.25 790.762 L 848.449 790.829 L 877.653 714.8 z"/>
<path transform="translate(0,0)" fill="rgb(254,254,254)" d="M 1510.33 733.299 C 1533.07 731.522 1560.11 738.603 1563.1 763.35 C 1566.17 788.664 1564.31 824.23 1564.12 850.01 L 1543.79 850.008 L 1542.99 832.276 C 1525.21 859.276 1483.46 861.463 1467.52 832.043 C 1459.85 798.929 1481.11 786.301 1511.21 784.168 C 1524.12 784.921 1555.22 779.248 1538.33 760.1 C 1525.25 745.269 1495.94 748.501 1491.68 770.75 L 1491.45 772.026 C 1484.25 772.024 1476.61 771.426 1469.4 770.994 C 1474.55 745.524 1484.63 737.183 1510.33 733.299 z"/>
<path transform="translate(0,0)" fill="rgb(0,0,0)" d="M 1540.51 794.16 L 1541.43 794.261 L 1542.43 795.948 C 1543.45 817.456 1538.08 833.217 1512.75 835.284 C 1506.57 835.788 1501.24 834.151 1495.49 832.006 C 1490.43 827.843 1484.36 818.271 1488.59 812.161 C 1498.81 797.415 1523.4 799.172 1539.11 794.579 L 1540.51 794.16 z"/>
<path transform="translate(0,0)" fill="rgb(254,254,254)" d="M 1258.73 733.304 C 1316.39 729.531 1314.11 767.233 1312.98 811.184 C 1312.66 823.84 1312.88 837.336 1312.82 850.06 L 1291.9 849.948 L 1291.47 831.16 C 1274.1 858.289 1231.61 862.105 1216.42 832.581 C 1206.92 798.516 1230.56 786.285 1260.73 784.045 C 1267.07 783.575 1274.72 783.029 1280.58 781.727 C 1292.49 779.084 1294.08 768.716 1286.52 760.063 C 1278.08 750.407 1260.11 748.661 1249.47 755.336 C 1243.22 759.256 1241 764.204 1239.59 770.721 L 1239.32 771.988 C 1232.25 771.828 1224.8 771.361 1217.71 771.033 C 1222.72 745.799 1233.6 736.967 1258.73 733.304 z"/>
<path transform="translate(0,0)" fill="rgb(0,0,0)" d="M 1288.48 794.124 L 1289.78 794.164 C 1292.57 797.811 1290.29 813.623 1288.43 818.032 C 1280.78 836.101 1259.44 838.396 1243.5 831.833 C 1238.49 827.663 1232.5 818.31 1236.8 812.241 C 1247.35 797.35 1272.1 798.972 1288.48 794.124 z"/>
<path transform="translate(0,0)" fill="rgb(254,254,254)" d="M 971.599 690.9 L 995.665 690.967 C 996.316 743.627 995.825 797.231 995.807 849.957 L 971.653 849.969 L 971.599 690.9 z"/>
<path transform="translate(0,0)" fill="rgb(254,254,254)" d="M 1636.99 734.143 C 1642.97 733.514 1646.99 733.838 1653.02 734.165 L 1653.06 755.547 C 1649.55 755.053 1646.03 754.745 1642.49 754.624 C 1609.36 753.585 1610.4 787.411 1611.07 810.659 C 1611.45 823.583 1611.17 837.016 1611.18 849.984 C 1606.53 850.063 1591.72 851.018 1588.86 848.809 L 1588.84 736.161 C 1595.76 736 1603.01 736.095 1609.96 736.079 L 1609.99 758.989 C 1615.89 743.664 1621.05 738.61 1636.99 734.143 z"/>
</svg>